<?xml version="1.0" encoding="utf-8" standalone="no"?>
<!DOCTYPE svg PUBLIC "-//W3C//DTD SVG 1.1//EN"
  "http://www.w3.org/Graphics/SVG/1.1/DTD/svg11.dtd">
<svg xmlns:xlink="http://www.w3.org/1999/xlink" width="460.193209pt" height="344.964862pt" viewBox="0 0 460.193209 344.964862" xmlns="http://www.w3.org/2000/svg" version="1.1">
 <metadata>
  <rdf:RDF xmlns:dc="http://purl.org/dc/elements/1.1/" xmlns:cc="http://creativecommons.org/ns#" xmlns:rdf="http://www.w3.org/1999/02/22-rdf-syntax-ns#">
   <cc:Work>
    <dc:type rdf:resource="http://purl.org/dc/dcmitype/StillImage"/>
    <dc:date>2026-02-01T22:17:55.214947</dc:date>
    <dc:format>image/svg+xml</dc:format>
    <dc:creator>
     <cc:Agent>
      <dc:title>Matplotlib v3.10.8, https://matplotlib.org/</dc:title>
     </cc:Agent>
    </dc:creator>
   </cc:Work>
  </rdf:RDF>
 </metadata>
 <defs>
  <style type="text/css">*{stroke-linejoin: round; stroke-linecap: butt}</style>
 </defs>
 <g id="figure_1">
  <g id="patch_1">
   <path d="M 0 344.964862 
L 460.193209 344.964862 
L 460.193209 0 
L 0 0 
z
" style="fill: #ffffff"/>
  </g>
  <g id="axes_1">
   <g id="patch_2">
    <path d="M 57.524151 307.018727 
L 414.173888 307.018727 
L 414.173888 41.395783 
L 57.524151 41.395783 
z
" style="fill: #ffffff"/>
   </g>
   <g id="patch_3">
    <path d="M 73.735503 307.018727 
L 75.002015 307.018727 
L 75.002015 262.291344 
L 73.735503 262.291344 
z
" clip-path="url(#p44a33072e7)" style="fill: #1f77b4"/>
   </g>
   <g id="patch_4">
    <path d="M 75.002015 307.018727 
L 76.268526 307.018727 
L 76.268526 291.62866 
L 75.002015 291.62866 
z
" clip-path="url(#p44a33072e7)" style="fill: #1f77b4"/>
   </g>
   <g id="patch_5">
    <path d="M 76.268526 307.018727 
L 77.535038 307.018727 
L 77.535038 294.514298 
L 76.268526 294.514298 
z
" clip-path="url(#p44a33072e7)" style="fill: #1f77b4"/>
   </g>
   <g id="patch_6">
    <path d="M 77.535038 307.018727 
L 78.80155 307.018727 
L 78.80155 292.1096 
L 77.535038 292.1096 
z
" clip-path="url(#p44a33072e7)" style="fill: #1f77b4"/>
   </g>
   <g id="patch_7">
    <path d="M 78.80155 307.018727 
L 80.068062 307.018727 
L 80.068062 291.308034 
L 78.80155 291.308034 
z
" clip-path="url(#p44a33072e7)" style="fill: #1f77b4"/>
   </g>
   <g id="patch_8">
    <path d="M 80.068062 307.018727 
L 81.334574 307.018727 
L 81.334574 294.033358 
L 80.068062 294.033358 
z
" clip-path="url(#p44a33072e7)" style="fill: #1f77b4"/>
   </g>
   <g id="patch_9">
    <path d="M 81.334574 307.018727 
L 82.601086 307.018727 
L 82.601086 291.788973 
L 81.334574 291.788973 
z
" clip-path="url(#p44a33072e7)" style="fill: #1f77b4"/>
   </g>
   <g id="patch_10">
    <path d="M 82.601086 307.018727 
L 83.867598 307.018727 
L 83.867598 286.178011 
L 82.601086 286.178011 
z
" clip-path="url(#p44a33072e7)" style="fill: #1f77b4"/>
   </g>
   <g id="patch_11">
    <path d="M 83.867598 307.018727 
L 85.134109 307.018727 
L 85.134109 291.949286 
L 83.867598 291.949286 
z
" clip-path="url(#p44a33072e7)" style="fill: #1f77b4"/>
   </g>
   <g id="patch_12">
    <path d="M 85.134109 307.018727 
L 86.400621 307.018727 
L 86.400621 289.544588 
L 85.134109 289.544588 
z
" clip-path="url(#p44a33072e7)" style="fill: #1f77b4"/>
   </g>
   <g id="patch_13">
    <path d="M 86.400621 307.018727 
L 87.667133 307.018727 
L 87.667133 286.498638 
L 86.400621 286.498638 
z
" clip-path="url(#p44a33072e7)" style="fill: #1f77b4"/>
   </g>
   <g id="patch_14">
    <path d="M 87.667133 307.018727 
L 88.933645 307.018727 
L 88.933645 284.414566 
L 87.667133 284.414566 
z
" clip-path="url(#p44a33072e7)" style="fill: #1f77b4"/>
   </g>
   <g id="patch_15">
    <path d="M 88.933645 307.018727 
L 90.200157 307.018727 
L 90.200157 287.300204 
L 88.933645 287.300204 
z
" clip-path="url(#p44a33072e7)" style="fill: #1f77b4"/>
   </g>
   <g id="patch_16">
    <path d="M 90.200157 307.018727 
L 91.466669 307.018727 
L 91.466669 286.819264 
L 90.200157 286.819264 
z
" clip-path="url(#p44a33072e7)" style="fill: #1f77b4"/>
   </g>
   <g id="patch_17">
    <path d="M 91.466669 307.018727 
L 92.73318 307.018727 
L 92.73318 284.735192 
L 91.466669 284.735192 
z
" clip-path="url(#p44a33072e7)" style="fill: #1f77b4"/>
   </g>
   <g id="patch_18">
    <path d="M 92.73318 307.018727 
L 93.999692 307.018727 
L 93.999692 274.475147 
L 92.73318 274.475147 
z
" clip-path="url(#p44a33072e7)" style="fill: #1f77b4"/>
   </g>
   <g id="patch_19">
    <path d="M 93.999692 307.018727 
L 95.266204 307.018727 
L 95.266204 281.047989 
L 93.999692 281.047989 
z
" clip-path="url(#p44a33072e7)" style="fill: #1f77b4"/>
   </g>
   <g id="patch_20">
    <path d="M 95.266204 307.018727 
L 96.532716 307.018727 
L 96.532716 270.467317 
L 95.266204 270.467317 
z
" clip-path="url(#p44a33072e7)" style="fill: #1f77b4"/>
   </g>
   <g id="patch_21">
    <path d="M 96.532716 307.018727 
L 97.799228 307.018727 
L 97.799228 261.169152 
L 96.532716 261.169152 
z
" clip-path="url(#p44a33072e7)" style="fill: #1f77b4"/>
   </g>
   <g id="patch_22">
    <path d="M 97.799228 307.018727 
L 99.06574 307.018727 
L 99.06574 278.643291 
L 97.799228 278.643291 
z
" clip-path="url(#p44a33072e7)" style="fill: #1f77b4"/>
   </g>
   <g id="patch_23">
    <path d="M 99.06574 307.018727 
L 100.332252 307.018727 
L 100.332252 273.994208 
L 99.06574 273.994208 
z
" clip-path="url(#p44a33072e7)" style="fill: #1f77b4"/>
   </g>
   <g id="patch_24">
    <path d="M 100.332252 307.018727 
L 101.598763 307.018727 
L 101.598763 273.032329 
L 100.332252 273.032329 
z
" clip-path="url(#p44a33072e7)" style="fill: #1f77b4"/>
   </g>
   <g id="patch_25">
    <path d="M 101.598763 307.018727 
L 102.865275 307.018727 
L 102.865275 276.078279 
L 101.598763 276.078279 
z
" clip-path="url(#p44a33072e7)" style="fill: #1f77b4"/>
   </g>
   <g id="patch_26">
    <path d="M 102.865275 307.018727 
L 104.131787 307.018727 
L 104.131787 273.192642 
L 102.865275 273.192642 
z
" clip-path="url(#p44a33072e7)" style="fill: #1f77b4"/>
   </g>
   <g id="patch_27">
    <path d="M 104.131787 307.018727 
L 105.398299 307.018727 
L 105.398299 242.893447 
L 104.131787 242.893447 
z
" clip-path="url(#p44a33072e7)" style="fill: #1f77b4"/>
   </g>
   <g id="patch_28">
    <path d="M 105.398299 307.018727 
L 106.664811 307.018727 
L 106.664811 234.55716 
L 105.398299 234.55716 
z
" clip-path="url(#p44a33072e7)" style="fill: #1f77b4"/>
   </g>
   <g id="patch_29">
    <path d="M 106.664811 307.018727 
L 107.931323 307.018727 
L 107.931323 256.039129 
L 106.664811 256.039129 
z
" clip-path="url(#p44a33072e7)" style="fill: #1f77b4"/>
   </g>
   <g id="patch_30">
    <path d="M 107.931323 307.018727 
L 109.197835 307.018727 
L 109.197835 259.886646 
L 107.931323 259.886646 
z
" clip-path="url(#p44a33072e7)" style="fill: #1f77b4"/>
   </g>
   <g id="patch_31">
    <path d="M 109.197835 307.018727 
L 110.464346 307.018727 
L 110.464346 223.01461 
L 109.197835 223.01461 
z
" clip-path="url(#p44a33072e7)" style="fill: #1f77b4"/>
   </g>
   <g id="patch_32">
    <path d="M 110.464346 307.018727 
L 111.730858 307.018727 
L 111.730858 209.708614 
L 110.464346 209.708614 
z
" clip-path="url(#p44a33072e7)" style="fill: #1f77b4"/>
   </g>
   <g id="patch_33">
    <path d="M 111.730858 307.018727 
L 112.99737 307.018727 
L 112.99737 238.404677 
L 111.730858 238.404677 
z
" clip-path="url(#p44a33072e7)" style="fill: #1f77b4"/>
   </g>
   <g id="patch_34">
    <path d="M 112.99737 307.018727 
L 114.263882 307.018727 
L 114.263882 240.007809 
L 112.99737 240.007809 
z
" clip-path="url(#p44a33072e7)" style="fill: #1f77b4"/>
   </g>
   <g id="patch_35">
    <path d="M 114.263882 307.018727 
L 115.530394 307.018727 
L 115.530394 190.150403 
L 114.263882 190.150403 
z
" clip-path="url(#p44a33072e7)" style="fill: #1f77b4"/>
   </g>
   <g id="patch_36">
    <path d="M 115.530394 307.018727 
L 116.796906 307.018727 
L 116.796906 213.395818 
L 115.530394 213.395818 
z
" clip-path="url(#p44a33072e7)" style="fill: #1f77b4"/>
   </g>
   <g id="patch_37">
    <path d="M 116.796906 307.018727 
L 118.063417 307.018727 
L 118.063417 220.609912 
L 116.796906 220.609912 
z
" clip-path="url(#p44a33072e7)" style="fill: #1f77b4"/>
   </g>
   <g id="patch_38">
    <path d="M 118.063417 307.018727 
L 119.329929 307.018727 
L 119.329929 202.173893 
L 118.063417 202.173893 
z
" clip-path="url(#p44a33072e7)" style="fill: #1f77b4"/>
   </g>
   <g id="patch_39">
    <path d="M 119.329929 307.018727 
L 120.596441 307.018727 
L 120.596441 165.622483 
L 119.329929 165.622483 
z
" clip-path="url(#p44a33072e7)" style="fill: #1f77b4"/>
   </g>
   <g id="patch_40">
    <path d="M 120.596441 307.018727 
L 121.862953 307.018727 
L 121.862953 224.297115 
L 120.596441 224.297115 
z
" clip-path="url(#p44a33072e7)" style="fill: #1f77b4"/>
   </g>
   <g id="patch_41">
    <path d="M 121.862953 307.018727 
L 123.129465 307.018727 
L 123.129465 210.830806 
L 121.862953 210.830806 
z
" clip-path="url(#p44a33072e7)" style="fill: #1f77b4"/>
   </g>
   <g id="patch_42">
    <path d="M 123.129465 307.018727 
L 124.395977 307.018727 
L 124.395977 181.97443 
L 123.129465 181.97443 
z
" clip-path="url(#p44a33072e7)" style="fill: #1f77b4"/>
   </g>
   <g id="patch_43">
    <path d="M 124.395977 307.018727 
L 125.662489 307.018727 
L 125.662489 138.208926 
L 124.395977 138.208926 
z
" clip-path="url(#p44a33072e7)" style="fill: #1f77b4"/>
   </g>
   <g id="patch_44">
    <path d="M 125.662489 307.018727 
L 126.929 307.018727 
L 126.929 218.846466 
L 125.662489 218.846466 
z
" clip-path="url(#p44a33072e7)" style="fill: #1f77b4"/>
   </g>
   <g id="patch_45">
    <path d="M 126.929 307.018727 
L 128.195512 307.018727 
L 128.195512 204.899218 
L 126.929 204.899218 
z
" clip-path="url(#p44a33072e7)" style="fill: #1f77b4"/>
   </g>
   <g id="patch_46">
    <path d="M 128.195512 307.018727 
L 129.462024 307.018727 
L 129.462024 135.964541 
L 128.195512 135.964541 
z
" clip-path="url(#p44a33072e7)" style="fill: #1f77b4"/>
   </g>
   <g id="patch_47">
    <path d="M 129.462024 307.018727 
L 130.728536 307.018727 
L 130.728536 127.467941 
L 129.462024 127.467941 
z
" clip-path="url(#p44a33072e7)" style="fill: #1f77b4"/>
   </g>
   <g id="patch_48">
    <path d="M 130.728536 307.018727 
L 131.995048 307.018727 
L 131.995048 228.785885 
L 130.728536 228.785885 
z
" clip-path="url(#p44a33072e7)" style="fill: #1f77b4"/>
   </g>
   <g id="patch_49">
    <path d="M 131.995048 307.018727 
L 133.26156 307.018727 
L 133.26156 226.701813 
L 131.995048 226.701813 
z
" clip-path="url(#p44a33072e7)" style="fill: #1f77b4"/>
   </g>
   <g id="patch_50">
    <path d="M 133.26156 307.018727 
L 134.528072 307.018727 
L 134.528072 232.793715 
L 133.26156 232.793715 
z
" clip-path="url(#p44a33072e7)" style="fill: #1f77b4"/>
   </g>
   <g id="patch_51">
    <path d="M 134.528072 307.018727 
L 135.794583 307.018727 
L 135.794583 230.869957 
L 134.528072 230.869957 
z
" clip-path="url(#p44a33072e7)" style="fill: #1f77b4"/>
   </g>
   <g id="patch_52">
    <path d="M 135.794583 307.018727 
L 137.061095 307.018727 
L 137.061095 231.992149 
L 135.794583 231.992149 
z
" clip-path="url(#p44a33072e7)" style="fill: #1f77b4"/>
   </g>
   <g id="patch_53">
    <path d="M 137.061095 307.018727 
L 138.327607 307.018727 
L 138.327607 133.239217 
L 137.061095 133.239217 
z
" clip-path="url(#p44a33072e7)" style="fill: #1f77b4"/>
   </g>
   <g id="patch_54">
    <path d="M 138.327607 307.018727 
L 139.594119 307.018727 
L 139.594119 54.044495 
L 138.327607 54.044495 
z
" clip-path="url(#p44a33072e7)" style="fill: #1f77b4"/>
   </g>
   <g id="patch_55">
    <path d="M 139.594119 307.018727 
L 140.860631 307.018727 
L 140.860631 191.272596 
L 139.594119 191.272596 
z
" clip-path="url(#p44a33072e7)" style="fill: #1f77b4"/>
   </g>
   <g id="patch_56">
    <path d="M 140.860631 307.018727 
L 142.127143 307.018727 
L 142.127143 115.444451 
L 140.860631 115.444451 
z
" clip-path="url(#p44a33072e7)" style="fill: #1f77b4"/>
   </g>
   <g id="patch_57">
    <path d="M 142.127143 307.018727 
L 143.393654 307.018727 
L 143.393654 156.644944 
L 142.127143 156.644944 
z
" clip-path="url(#p44a33072e7)" style="fill: #1f77b4"/>
   </g>
   <g id="patch_58">
    <path d="M 143.393654 307.018727 
L 144.660166 307.018727 
L 144.660166 221.732104 
L 143.393654 221.732104 
z
" clip-path="url(#p44a33072e7)" style="fill: #1f77b4"/>
   </g>
   <g id="patch_59">
    <path d="M 144.660166 307.018727 
L 145.926678 307.018727 
L 145.926678 218.205214 
L 144.660166 218.205214 
z
" clip-path="url(#p44a33072e7)" style="fill: #1f77b4"/>
   </g>
   <g id="patch_60">
    <path d="M 145.926678 307.018727 
L 147.19319 307.018727 
L 147.19319 171.393759 
L 145.926678 171.393759 
z
" clip-path="url(#p44a33072e7)" style="fill: #1f77b4"/>
   </g>
   <g id="patch_61">
    <path d="M 147.19319 307.018727 
L 148.459702 307.018727 
L 148.459702 179.088792 
L 147.19319 179.088792 
z
" clip-path="url(#p44a33072e7)" style="fill: #1f77b4"/>
   </g>
   <g id="patch_62">
    <path d="M 148.459702 307.018727 
L 149.726214 307.018727 
L 149.726214 232.152462 
L 148.459702 232.152462 
z
" clip-path="url(#p44a33072e7)" style="fill: #1f77b4"/>
   </g>
   <g id="patch_63">
    <path d="M 149.726214 307.018727 
L 150.992726 307.018727 
L 150.992726 227.824006 
L 149.726214 227.824006 
z
" clip-path="url(#p44a33072e7)" style="fill: #1f77b4"/>
   </g>
   <g id="patch_64">
    <path d="M 150.992726 307.018727 
L 152.259237 307.018727 
L 152.259237 186.944139 
L 150.992726 186.944139 
z
" clip-path="url(#p44a33072e7)" style="fill: #1f77b4"/>
   </g>
   <g id="patch_65">
    <path d="M 152.259237 307.018727 
L 153.525749 307.018727 
L 153.525749 203.456399 
L 152.259237 203.456399 
z
" clip-path="url(#p44a33072e7)" style="fill: #1f77b4"/>
   </g>
   <g id="patch_66">
    <path d="M 153.525749 307.018727 
L 154.792261 307.018727 
L 154.792261 231.350896 
L 153.525749 231.350896 
z
" clip-path="url(#p44a33072e7)" style="fill: #1f77b4"/>
   </g>
   <g id="patch_67">
    <path d="M 154.792261 307.018727 
L 156.058773 307.018727 
L 156.058773 201.532641 
L 154.792261 201.532641 
z
" clip-path="url(#p44a33072e7)" style="fill: #1f77b4"/>
   </g>
   <g id="patch_68">
    <path d="M 156.058773 307.018727 
L 157.325285 307.018727 
L 157.325285 194.47886 
L 156.058773 194.47886 
z
" clip-path="url(#p44a33072e7)" style="fill: #1f77b4"/>
   </g>
   <g id="patch_69">
    <path d="M 157.325285 307.018727 
L 158.591797 307.018727 
L 158.591797 240.809375 
L 157.325285 240.809375 
z
" clip-path="url(#p44a33072e7)" style="fill: #1f77b4"/>
   </g>
   <g id="patch_70">
    <path d="M 158.591797 307.018727 
L 159.858308 307.018727 
L 159.858308 230.068391 
L 158.591797 230.068391 
z
" clip-path="url(#p44a33072e7)" style="fill: #1f77b4"/>
   </g>
   <g id="patch_71">
    <path d="M 159.858308 307.018727 
L 161.12482 307.018727 
L 161.12482 204.257965 
L 159.858308 204.257965 
z
" clip-path="url(#p44a33072e7)" style="fill: #1f77b4"/>
   </g>
   <g id="patch_72">
    <path d="M 161.12482 307.018727 
L 162.391332 307.018727 
L 162.391332 203.937339 
L 161.12482 203.937339 
z
" clip-path="url(#p44a33072e7)" style="fill: #1f77b4"/>
   </g>
   <g id="patch_73">
    <path d="M 162.391332 307.018727 
L 163.657844 307.018727 
L 163.657844 248.344096 
L 162.391332 248.344096 
z
" clip-path="url(#p44a33072e7)" style="fill: #1f77b4"/>
   </g>
   <g id="patch_74">
    <path d="M 163.657844 307.018727 
L 164.924356 307.018727 
L 164.924356 253.955058 
L 163.657844 253.955058 
z
" clip-path="url(#p44a33072e7)" style="fill: #1f77b4"/>
   </g>
   <g id="patch_75">
    <path d="M 164.924356 307.018727 
L 166.190868 307.018727 
L 166.190868 257.962888 
L 164.924356 257.962888 
z
" clip-path="url(#p44a33072e7)" style="fill: #1f77b4"/>
   </g>
   <g id="patch_76">
    <path d="M 166.190868 307.018727 
L 167.45738 307.018727 
L 167.45738 248.825035 
L 166.190868 248.825035 
z
" clip-path="url(#p44a33072e7)" style="fill: #1f77b4"/>
   </g>
   <g id="patch_77">
    <path d="M 167.45738 307.018727 
L 168.723891 307.018727 
L 168.723891 236.641232 
L 167.45738 236.641232 
z
" clip-path="url(#p44a33072e7)" style="fill: #1f77b4"/>
   </g>
   <g id="patch_78">
    <path d="M 168.723891 307.018727 
L 169.990403 307.018727 
L 169.990403 225.258994 
L 168.723891 225.258994 
z
" clip-path="url(#p44a33072e7)" style="fill: #1f77b4"/>
   </g>
   <g id="patch_79">
    <path d="M 169.990403 307.018727 
L 171.256915 307.018727 
L 171.256915 201.853267 
L 169.990403 201.853267 
z
" clip-path="url(#p44a33072e7)" style="fill: #1f77b4"/>
   </g>
   <g id="patch_80">
    <path d="M 171.256915 307.018727 
L 172.523427 307.018727 
L 172.523427 242.893447 
L 171.256915 242.893447 
z
" clip-path="url(#p44a33072e7)" style="fill: #1f77b4"/>
   </g>
   <g id="patch_81">
    <path d="M 172.523427 307.018727 
L 173.789939 307.018727 
L 173.789939 238.244364 
L 172.523427 238.244364 
z
" clip-path="url(#p44a33072e7)" style="fill: #1f77b4"/>
   </g>
   <g id="patch_82">
    <path d="M 173.789939 307.018727 
L 175.056451 307.018727 
L 175.056451 200.731075 
L 173.789939 200.731075 
z
" clip-path="url(#p44a33072e7)" style="fill: #1f77b4"/>
   </g>
   <g id="patch_83">
    <path d="M 175.056451 307.018727 
L 176.322963 307.018727 
L 176.322963 184.699754 
L 175.056451 184.699754 
z
" clip-path="url(#p44a33072e7)" style="fill: #1f77b4"/>
   </g>
   <g id="patch_84">
    <path d="M 176.322963 307.018727 
L 177.589474 307.018727 
L 177.589474 231.671523 
L 176.322963 231.671523 
z
" clip-path="url(#p44a33072e7)" style="fill: #1f77b4"/>
   </g>
   <g id="patch_85">
    <path d="M 177.589474 307.018727 
L 178.855986 307.018727 
L 178.855986 203.616712 
L 177.589474 203.616712 
z
" clip-path="url(#p44a33072e7)" style="fill: #1f77b4"/>
   </g>
   <g id="patch_86">
    <path d="M 178.855986 307.018727 
L 180.122498 307.018727 
L 180.122498 207.143603 
L 178.855986 207.143603 
z
" clip-path="url(#p44a33072e7)" style="fill: #1f77b4"/>
   </g>
   <g id="patch_87">
    <path d="M 180.122498 307.018727 
L 181.38901 307.018727 
L 181.38901 239.687183 
L 180.122498 239.687183 
z
" clip-path="url(#p44a33072e7)" style="fill: #1f77b4"/>
   </g>
   <g id="patch_88">
    <path d="M 181.38901 307.018727 
L 182.655522 307.018727 
L 182.655522 228.465259 
L 181.38901 228.465259 
z
" clip-path="url(#p44a33072e7)" style="fill: #1f77b4"/>
   </g>
   <g id="patch_89">
    <path d="M 182.655522 307.018727 
L 183.922034 307.018727 
L 183.922034 217.563961 
L 182.655522 217.563961 
z
" clip-path="url(#p44a33072e7)" style="fill: #1f77b4"/>
   </g>
   <g id="patch_90">
    <path d="M 183.922034 307.018727 
L 185.188545 307.018727 
L 185.188545 215.960829 
L 183.922034 215.960829 
z
" clip-path="url(#p44a33072e7)" style="fill: #1f77b4"/>
   </g>
   <g id="patch_91">
    <path d="M 185.188545 307.018727 
L 186.455057 307.018727 
L 186.455057 240.488749 
L 185.188545 240.488749 
z
" clip-path="url(#p44a33072e7)" style="fill: #1f77b4"/>
   </g>
   <g id="patch_92">
    <path d="M 186.455057 307.018727 
L 187.721569 307.018727 
L 187.721569 231.992149 
L 186.455057 231.992149 
z
" clip-path="url(#p44a33072e7)" style="fill: #1f77b4"/>
   </g>
   <g id="patch_93">
    <path d="M 187.721569 307.018727 
L 188.988081 307.018727 
L 188.988081 211.151433 
L 187.721569 211.151433 
z
" clip-path="url(#p44a33072e7)" style="fill: #1f77b4"/>
   </g>
   <g id="patch_94">
    <path d="M 188.988081 307.018727 
L 190.254593 307.018727 
L 190.254593 215.960829 
L 188.988081 215.960829 
z
" clip-path="url(#p44a33072e7)" style="fill: #1f77b4"/>
   </g>
   <g id="patch_95">
    <path d="M 190.254593 307.018727 
L 191.521105 307.018727 
L 191.521105 229.427138 
L 190.254593 229.427138 
z
" clip-path="url(#p44a33072e7)" style="fill: #1f77b4"/>
   </g>
   <g id="patch_96">
    <path d="M 191.521105 307.018727 
L 192.787617 307.018727 
L 192.787617 214.838636 
L 191.521105 214.838636 
z
" clip-path="url(#p44a33072e7)" style="fill: #1f77b4"/>
   </g>
   <g id="patch_97">
    <path d="M 192.787617 307.018727 
L 194.054128 307.018727 
L 194.054128 220.930538 
L 192.787617 220.930538 
z
" clip-path="url(#p44a33072e7)" style="fill: #1f77b4"/>
   </g>
   <g id="patch_98">
    <path d="M 194.054128 307.018727 
L 195.32064 307.018727 
L 195.32064 251.06942 
L 194.054128 251.06942 
z
" clip-path="url(#p44a33072e7)" style="fill: #1f77b4"/>
   </g>
   <g id="patch_99">
    <path d="M 195.32064 307.018727 
L 196.587152 307.018727 
L 196.587152 250.267854 
L 195.32064 250.267854 
z
" clip-path="url(#p44a33072e7)" style="fill: #1f77b4"/>
   </g>
   <g id="patch_100">
    <path d="M 196.587152 307.018727 
L 197.853664 307.018727 
L 197.853664 251.870986 
L 196.587152 251.870986 
z
" clip-path="url(#p44a33072e7)" style="fill: #1f77b4"/>
   </g>
   <g id="patch_101">
    <path d="M 197.853664 307.018727 
L 199.120176 307.018727 
L 199.120176 251.229733 
L 197.853664 251.229733 
z
" clip-path="url(#p44a33072e7)" style="fill: #1f77b4"/>
   </g>
   <g id="patch_102">
    <path d="M 199.120176 307.018727 
L 200.386688 307.018727 
L 200.386688 242.57282 
L 199.120176 242.57282 
z
" clip-path="url(#p44a33072e7)" style="fill: #1f77b4"/>
   </g>
   <g id="patch_103">
    <path d="M 200.386688 307.018727 
L 201.6532 307.018727 
L 201.6532 240.488749 
L 200.386688 240.488749 
z
" clip-path="url(#p44a33072e7)" style="fill: #1f77b4"/>
   </g>
   <g id="patch_104">
    <path d="M 201.6532 307.018727 
L 202.919711 307.018727 
L 202.919711 205.861097 
L 201.6532 205.861097 
z
" clip-path="url(#p44a33072e7)" style="fill: #1f77b4"/>
   </g>
   <g id="patch_105">
    <path d="M 202.919711 307.018727 
L 204.186223 307.018727 
L 204.186223 185.821947 
L 202.919711 185.821947 
z
" clip-path="url(#p44a33072e7)" style="fill: #1f77b4"/>
   </g>
   <g id="patch_106">
    <path d="M 204.186223 307.018727 
L 205.452735 307.018727 
L 205.452735 230.869957 
L 204.186223 230.869957 
z
" clip-path="url(#p44a33072e7)" style="fill: #1f77b4"/>
   </g>
   <g id="patch_107">
    <path d="M 205.452735 307.018727 
L 206.719247 307.018727 
L 206.719247 209.227674 
L 205.452735 209.227674 
z
" clip-path="url(#p44a33072e7)" style="fill: #1f77b4"/>
   </g>
   <g id="patch_108">
    <path d="M 206.719247 307.018727 
L 207.985759 307.018727 
L 207.985759 222.53367 
L 206.719247 222.53367 
z
" clip-path="url(#p44a33072e7)" style="fill: #1f77b4"/>
   </g>
   <g id="patch_109">
    <path d="M 207.985759 307.018727 
L 209.252271 307.018727 
L 209.252271 243.05376 
L 207.985759 243.05376 
z
" clip-path="url(#p44a33072e7)" style="fill: #1f77b4"/>
   </g>
   <g id="patch_110">
    <path d="M 209.252271 307.018727 
L 210.518782 307.018727 
L 210.518782 236.320605 
L 209.252271 236.320605 
z
" clip-path="url(#p44a33072e7)" style="fill: #1f77b4"/>
   </g>
   <g id="patch_111">
    <path d="M 210.518782 307.018727 
L 211.785294 307.018727 
L 211.785294 230.389017 
L 210.518782 230.389017 
z
" clip-path="url(#p44a33072e7)" style="fill: #1f77b4"/>
   </g>
   <g id="patch_112">
    <path d="M 211.785294 307.018727 
L 213.051806 307.018727 
L 213.051806 236.320605 
L 211.785294 236.320605 
z
" clip-path="url(#p44a33072e7)" style="fill: #1f77b4"/>
   </g>
   <g id="patch_113">
    <path d="M 213.051806 307.018727 
L 214.318318 307.018727 
L 214.318318 251.55036 
L 213.051806 251.55036 
z
" clip-path="url(#p44a33072e7)" style="fill: #1f77b4"/>
   </g>
   <g id="patch_114">
    <path d="M 214.318318 307.018727 
L 215.58483 307.018727 
L 215.58483 243.534699 
L 214.318318 243.534699 
z
" clip-path="url(#p44a33072e7)" style="fill: #1f77b4"/>
   </g>
   <g id="patch_115">
    <path d="M 215.58483 307.018727 
L 216.851342 307.018727 
L 216.851342 247.221903 
L 215.58483 247.221903 
z
" clip-path="url(#p44a33072e7)" style="fill: #1f77b4"/>
   </g>
   <g id="patch_116">
    <path d="M 216.851342 307.018727 
L 218.117854 307.018727 
L 218.117854 258.283514 
L 216.851342 258.283514 
z
" clip-path="url(#p44a33072e7)" style="fill: #1f77b4"/>
   </g>
   <g id="patch_117">
    <path d="M 218.117854 307.018727 
L 219.384365 307.018727 
L 219.384365 252.351926 
L 218.117854 252.351926 
z
" clip-path="url(#p44a33072e7)" style="fill: #1f77b4"/>
   </g>
   <g id="patch_118">
    <path d="M 219.384365 307.018727 
L 220.650877 307.018727 
L 220.650877 244.496579 
L 219.384365 244.496579 
z
" clip-path="url(#p44a33072e7)" style="fill: #1f77b4"/>
   </g>
   <g id="patch_119">
    <path d="M 220.650877 307.018727 
L 221.917389 307.018727 
L 221.917389 252.993178 
L 220.650877 252.993178 
z
" clip-path="url(#p44a33072e7)" style="fill: #1f77b4"/>
   </g>
   <g id="patch_120">
    <path d="M 221.917389 307.018727 
L 223.183901 307.018727 
L 223.183901 260.046959 
L 221.917389 260.046959 
z
" clip-path="url(#p44a33072e7)" style="fill: #1f77b4"/>
   </g>
   <g id="patch_121">
    <path d="M 223.183901 307.018727 
L 224.450413 307.018727 
L 224.450413 265.016669 
L 223.183901 265.016669 
z
" clip-path="url(#p44a33072e7)" style="fill: #1f77b4"/>
   </g>
   <g id="patch_122">
    <path d="M 224.450413 307.018727 
L 225.716925 307.018727 
L 225.716925 264.856355 
L 224.450413 264.856355 
z
" clip-path="url(#p44a33072e7)" style="fill: #1f77b4"/>
   </g>
   <g id="patch_123">
    <path d="M 225.716925 307.018727 
L 226.983436 307.018727 
L 226.983436 256.680382 
L 225.716925 256.680382 
z
" clip-path="url(#p44a33072e7)" style="fill: #1f77b4"/>
   </g>
   <g id="patch_124">
    <path d="M 226.983436 307.018727 
L 228.249948 307.018727 
L 228.249948 273.513268 
L 226.983436 273.513268 
z
" clip-path="url(#p44a33072e7)" style="fill: #1f77b4"/>
   </g>
   <g id="patch_125">
    <path d="M 228.249948 307.018727 
L 229.51646 307.018727 
L 229.51646 276.398906 
L 228.249948 276.398906 
z
" clip-path="url(#p44a33072e7)" style="fill: #1f77b4"/>
   </g>
   <g id="patch_126">
    <path d="M 229.51646 307.018727 
L 230.782972 307.018727 
L 230.782972 277.040159 
L 229.51646 277.040159 
z
" clip-path="url(#p44a33072e7)" style="fill: #1f77b4"/>
   </g>
   <g id="patch_127">
    <path d="M 230.782972 307.018727 
L 232.049484 307.018727 
L 232.049484 270.146691 
L 230.782972 270.146691 
z
" clip-path="url(#p44a33072e7)" style="fill: #1f77b4"/>
   </g>
   <g id="patch_128">
    <path d="M 232.049484 307.018727 
L 233.315996 307.018727 
L 233.315996 274.154521 
L 232.049484 274.154521 
z
" clip-path="url(#p44a33072e7)" style="fill: #1f77b4"/>
   </g>
   <g id="patch_129">
    <path d="M 233.315996 307.018727 
L 234.582508 307.018727 
L 234.582508 265.497608 
L 233.315996 265.497608 
z
" clip-path="url(#p44a33072e7)" style="fill: #1f77b4"/>
   </g>
   <g id="patch_130">
    <path d="M 234.582508 307.018727 
L 235.849019 307.018727 
L 235.849019 262.932597 
L 234.582508 262.932597 
z
" clip-path="url(#p44a33072e7)" style="fill: #1f77b4"/>
   </g>
   <g id="patch_131">
    <path d="M 235.849019 307.018727 
L 237.115531 307.018727 
L 237.115531 268.703872 
L 235.849019 268.703872 
z
" clip-path="url(#p44a33072e7)" style="fill: #1f77b4"/>
   </g>
   <g id="patch_132">
    <path d="M 237.115531 307.018727 
L 238.382043 307.018727 
L 238.382043 272.070449 
L 237.115531 272.070449 
z
" clip-path="url(#p44a33072e7)" style="fill: #1f77b4"/>
   </g>
   <g id="patch_133">
    <path d="M 238.382043 307.018727 
L 239.648555 307.018727 
L 239.648555 266.780114 
L 238.382043 266.780114 
z
" clip-path="url(#p44a33072e7)" style="fill: #1f77b4"/>
   </g>
   <g id="patch_134">
    <path d="M 239.648555 307.018727 
L 240.915067 307.018727 
L 240.915067 252.191612 
L 239.648555 252.191612 
z
" clip-path="url(#p44a33072e7)" style="fill: #1f77b4"/>
   </g>
   <g id="patch_135">
    <path d="M 240.915067 307.018727 
L 242.181579 307.018727 
L 242.181579 266.299174 
L 240.915067 266.299174 
z
" clip-path="url(#p44a33072e7)" style="fill: #1f77b4"/>
   </g>
   <g id="patch_136">
    <path d="M 242.181579 307.018727 
L 243.448091 307.018727 
L 243.448091 260.688212 
L 242.181579 260.688212 
z
" clip-path="url(#p44a33072e7)" style="fill: #1f77b4"/>
   </g>
   <g id="patch_137">
    <path d="M 243.448091 307.018727 
L 244.714602 307.018727 
L 244.714602 257.962888 
L 243.448091 257.962888 
z
" clip-path="url(#p44a33072e7)" style="fill: #1f77b4"/>
   </g>
   <g id="patch_138">
    <path d="M 244.714602 307.018727 
L 245.981114 307.018727 
L 245.981114 271.910136 
L 244.714602 271.910136 
z
" clip-path="url(#p44a33072e7)" style="fill: #1f77b4"/>
   </g>
   <g id="patch_139">
    <path d="M 245.981114 307.018727 
L 247.247626 307.018727 
L 247.247626 268.543559 
L 245.981114 268.543559 
z
" clip-path="url(#p44a33072e7)" style="fill: #1f77b4"/>
   </g>
   <g id="patch_140">
    <path d="M 247.247626 307.018727 
L 248.514138 307.018727 
L 248.514138 267.902306 
L 247.247626 267.902306 
z
" clip-path="url(#p44a33072e7)" style="fill: #1f77b4"/>
   </g>
   <g id="patch_141">
    <path d="M 248.514138 307.018727 
L 249.78065 307.018727 
L 249.78065 266.780114 
L 248.514138 266.780114 
z
" clip-path="url(#p44a33072e7)" style="fill: #1f77b4"/>
   </g>
   <g id="patch_142">
    <path d="M 249.78065 307.018727 
L 251.047162 307.018727 
L 251.047162 275.59734 
L 249.78065 275.59734 
z
" clip-path="url(#p44a33072e7)" style="fill: #1f77b4"/>
   </g>
   <g id="patch_143">
    <path d="M 251.047162 307.018727 
L 252.313673 307.018727 
L 252.313673 275.437027 
L 251.047162 275.437027 
z
" clip-path="url(#p44a33072e7)" style="fill: #1f77b4"/>
   </g>
   <g id="patch_144">
    <path d="M 252.313673 307.018727 
L 253.580185 307.018727 
L 253.580185 273.513268 
L 252.313673 273.513268 
z
" clip-path="url(#p44a33072e7)" style="fill: #1f77b4"/>
   </g>
   <g id="patch_145">
    <path d="M 253.580185 307.018727 
L 254.846697 307.018727 
L 254.846697 278.162351 
L 253.580185 278.162351 
z
" clip-path="url(#p44a33072e7)" style="fill: #1f77b4"/>
   </g>
   <g id="patch_146">
    <path d="M 254.846697 307.018727 
L 256.113209 307.018727 
L 256.113209 276.719532 
L 254.846697 276.719532 
z
" clip-path="url(#p44a33072e7)" style="fill: #1f77b4"/>
   </g>
   <g id="patch_147">
    <path d="M 256.113209 307.018727 
L 257.379721 307.018727 
L 257.379721 280.567049 
L 256.113209 280.567049 
z
" clip-path="url(#p44a33072e7)" style="fill: #1f77b4"/>
   </g>
   <g id="patch_148">
    <path d="M 257.379721 307.018727 
L 258.646233 307.018727 
L 258.646233 278.803604 
L 257.379721 278.803604 
z
" clip-path="url(#p44a33072e7)" style="fill: #1f77b4"/>
   </g>
   <g id="patch_149">
    <path d="M 258.646233 307.018727 
L 259.912745 307.018727 
L 259.912745 278.482977 
L 258.646233 278.482977 
z
" clip-path="url(#p44a33072e7)" style="fill: #1f77b4"/>
   </g>
   <g id="patch_150">
    <path d="M 259.912745 307.018727 
L 261.179256 307.018727 
L 261.179256 282.811434 
L 259.912745 282.811434 
z
" clip-path="url(#p44a33072e7)" style="fill: #1f77b4"/>
   </g>
   <g id="patch_151">
    <path d="M 261.179256 307.018727 
L 262.445768 307.018727 
L 262.445768 289.704902 
L 261.179256 289.704902 
z
" clip-path="url(#p44a33072e7)" style="fill: #1f77b4"/>
   </g>
   <g id="patch_152">
    <path d="M 262.445768 307.018727 
L 263.71228 307.018727 
L 263.71228 286.979577 
L 262.445768 286.979577 
z
" clip-path="url(#p44a33072e7)" style="fill: #1f77b4"/>
   </g>
   <g id="patch_153">
    <path d="M 263.71228 307.018727 
L 264.978792 307.018727 
L 264.978792 289.544588 
L 263.71228 289.544588 
z
" clip-path="url(#p44a33072e7)" style="fill: #1f77b4"/>
   </g>
   <g id="patch_154">
    <path d="M 264.978792 307.018727 
L 266.245304 307.018727 
L 266.245304 287.460517 
L 264.978792 287.460517 
z
" clip-path="url(#p44a33072e7)" style="fill: #1f77b4"/>
   </g>
   <g id="patch_155">
    <path d="M 266.245304 307.018727 
L 267.511816 307.018727 
L 267.511816 285.376445 
L 266.245304 285.376445 
z
" clip-path="url(#p44a33072e7)" style="fill: #1f77b4"/>
   </g>
   <g id="patch_156">
    <path d="M 267.511816 307.018727 
L 268.778328 307.018727 
L 268.778328 292.269913 
L 267.511816 292.269913 
z
" clip-path="url(#p44a33072e7)" style="fill: #1f77b4"/>
   </g>
   <g id="patch_157">
    <path d="M 268.778328 307.018727 
L 270.044839 307.018727 
L 270.044839 286.819264 
L 268.778328 286.819264 
z
" clip-path="url(#p44a33072e7)" style="fill: #1f77b4"/>
   </g>
   <g id="patch_158">
    <path d="M 270.044839 307.018727 
L 271.311351 307.018727 
L 271.311351 287.300204 
L 270.044839 287.300204 
z
" clip-path="url(#p44a33072e7)" style="fill: #1f77b4"/>
   </g>
   <g id="patch_159">
    <path d="M 271.311351 307.018727 
L 272.577863 307.018727 
L 272.577863 289.384275 
L 271.311351 289.384275 
z
" clip-path="url(#p44a33072e7)" style="fill: #1f77b4"/>
   </g>
   <g id="patch_160">
    <path d="M 272.577863 307.018727 
L 273.844375 307.018727 
L 273.844375 288.262083 
L 272.577863 288.262083 
z
" clip-path="url(#p44a33072e7)" style="fill: #1f77b4"/>
   </g>
   <g id="patch_161">
    <path d="M 273.844375 307.018727 
L 275.110887 307.018727 
L 275.110887 290.185841 
L 273.844375 290.185841 
z
" clip-path="url(#p44a33072e7)" style="fill: #1f77b4"/>
   </g>
   <g id="patch_162">
    <path d="M 275.110887 307.018727 
L 276.377399 307.018727 
L 276.377399 286.338324 
L 275.110887 286.338324 
z
" clip-path="url(#p44a33072e7)" style="fill: #1f77b4"/>
   </g>
   <g id="patch_163">
    <path d="M 276.377399 307.018727 
L 277.64391 307.018727 
L 277.64391 291.949286 
L 276.377399 291.949286 
z
" clip-path="url(#p44a33072e7)" style="fill: #1f77b4"/>
   </g>
   <g id="patch_164">
    <path d="M 277.64391 307.018727 
L 278.910422 307.018727 
L 278.910422 289.865215 
L 277.64391 289.865215 
z
" clip-path="url(#p44a33072e7)" style="fill: #1f77b4"/>
   </g>
   <g id="patch_165">
    <path d="M 278.910422 307.018727 
L 280.176934 307.018727 
L 280.176934 292.1096 
L 278.910422 292.1096 
z
" clip-path="url(#p44a33072e7)" style="fill: #1f77b4"/>
   </g>
   <g id="patch_166">
    <path d="M 280.176934 307.018727 
L 281.443446 307.018727 
L 281.443446 287.460517 
L 280.176934 287.460517 
z
" clip-path="url(#p44a33072e7)" style="fill: #1f77b4"/>
   </g>
   <g id="patch_167">
    <path d="M 281.443446 307.018727 
L 282.709958 307.018727 
L 282.709958 291.62866 
L 281.443446 291.62866 
z
" clip-path="url(#p44a33072e7)" style="fill: #1f77b4"/>
   </g>
   <g id="patch_168">
    <path d="M 282.709958 307.018727 
L 283.97647 307.018727 
L 283.97647 291.62866 
L 282.709958 291.62866 
z
" clip-path="url(#p44a33072e7)" style="fill: #1f77b4"/>
   </g>
   <g id="patch_169">
    <path d="M 283.97647 307.018727 
L 285.242982 307.018727 
L 285.242982 291.788973 
L 283.97647 291.788973 
z
" clip-path="url(#p44a33072e7)" style="fill: #1f77b4"/>
   </g>
   <g id="patch_170">
    <path d="M 285.242982 307.018727 
L 286.509493 307.018727 
L 286.509493 294.995237 
L 285.242982 294.995237 
z
" clip-path="url(#p44a33072e7)" style="fill: #1f77b4"/>
   </g>
   <g id="patch_171">
    <path d="M 286.509493 307.018727 
L 287.776005 307.018727 
L 287.776005 293.873045 
L 286.509493 293.873045 
z
" clip-path="url(#p44a33072e7)" style="fill: #1f77b4"/>
   </g>
   <g id="patch_172">
    <path d="M 287.776005 307.018727 
L 289.042517 307.018727 
L 289.042517 294.033358 
L 287.776005 294.033358 
z
" clip-path="url(#p44a33072e7)" style="fill: #1f77b4"/>
   </g>
   <g id="patch_173">
    <path d="M 289.042517 307.018727 
L 290.309029 307.018727 
L 290.309029 294.193671 
L 289.042517 294.193671 
z
" clip-path="url(#p44a33072e7)" style="fill: #1f77b4"/>
   </g>
   <g id="patch_174">
    <path d="M 290.309029 307.018727 
L 291.575541 307.018727 
L 291.575541 296.758682 
L 290.309029 296.758682 
z
" clip-path="url(#p44a33072e7)" style="fill: #1f77b4"/>
   </g>
   <g id="patch_175">
    <path d="M 291.575541 307.018727 
L 292.842053 307.018727 
L 292.842053 297.079309 
L 291.575541 297.079309 
z
" clip-path="url(#p44a33072e7)" style="fill: #1f77b4"/>
   </g>
   <g id="patch_176">
    <path d="M 292.842053 307.018727 
L 294.108564 307.018727 
L 294.108564 298.361814 
L 292.842053 298.361814 
z
" clip-path="url(#p44a33072e7)" style="fill: #1f77b4"/>
   </g>
   <g id="patch_177">
    <path d="M 294.108564 307.018727 
L 295.375076 307.018727 
L 295.375076 299.484007 
L 294.108564 299.484007 
z
" clip-path="url(#p44a33072e7)" style="fill: #1f77b4"/>
   </g>
   <g id="patch_178">
    <path d="M 295.375076 307.018727 
L 296.641588 307.018727 
L 296.641588 299.003067 
L 295.375076 299.003067 
z
" clip-path="url(#p44a33072e7)" style="fill: #1f77b4"/>
   </g>
   <g id="patch_179">
    <path d="M 296.641588 307.018727 
L 297.9081 307.018727 
L 297.9081 297.560248 
L 296.641588 297.560248 
z
" clip-path="url(#p44a33072e7)" style="fill: #1f77b4"/>
   </g>
   <g id="patch_180">
    <path d="M 297.9081 307.018727 
L 299.174612 307.018727 
L 299.174612 298.842754 
L 297.9081 298.842754 
z
" clip-path="url(#p44a33072e7)" style="fill: #1f77b4"/>
   </g>
   <g id="patch_181">
    <path d="M 299.174612 307.018727 
L 300.441124 307.018727 
L 300.441124 298.201501 
L 299.174612 298.201501 
z
" clip-path="url(#p44a33072e7)" style="fill: #1f77b4"/>
   </g>
   <g id="patch_182">
    <path d="M 300.441124 307.018727 
L 301.707636 307.018727 
L 301.707636 296.758682 
L 300.441124 296.758682 
z
" clip-path="url(#p44a33072e7)" style="fill: #1f77b4"/>
   </g>
   <g id="patch_183">
    <path d="M 301.707636 307.018727 
L 302.974147 307.018727 
L 302.974147 298.041188 
L 301.707636 298.041188 
z
" clip-path="url(#p44a33072e7)" style="fill: #1f77b4"/>
   </g>
   <g id="patch_184">
    <path d="M 302.974147 307.018727 
L 304.240659 307.018727 
L 304.240659 299.003067 
L 302.974147 299.003067 
z
" clip-path="url(#p44a33072e7)" style="fill: #1f77b4"/>
   </g>
   <g id="patch_185">
    <path d="M 304.240659 307.018727 
L 305.507171 307.018727 
L 305.507171 299.64432 
L 304.240659 299.64432 
z
" clip-path="url(#p44a33072e7)" style="fill: #1f77b4"/>
   </g>
   <g id="patch_186">
    <path d="M 305.507171 307.018727 
L 306.773683 307.018727 
L 306.773683 298.201501 
L 305.507171 298.201501 
z
" clip-path="url(#p44a33072e7)" style="fill: #1f77b4"/>
   </g>
   <g id="patch_187">
    <path d="M 306.773683 307.018727 
L 308.040195 307.018727 
L 308.040195 301.247452 
L 306.773683 301.247452 
z
" clip-path="url(#p44a33072e7)" style="fill: #1f77b4"/>
   </g>
   <g id="patch_188">
    <path d="M 308.040195 307.018727 
L 309.306707 307.018727 
L 309.306707 297.880875 
L 308.040195 297.880875 
z
" clip-path="url(#p44a33072e7)" style="fill: #1f77b4"/>
   </g>
   <g id="patch_189">
    <path d="M 309.306707 307.018727 
L 310.573219 307.018727 
L 310.573219 297.720562 
L 309.306707 297.720562 
z
" clip-path="url(#p44a33072e7)" style="fill: #1f77b4"/>
   </g>
   <g id="patch_190">
    <path d="M 310.573219 307.018727 
L 311.83973 307.018727 
L 311.83973 299.16338 
L 310.573219 299.16338 
z
" clip-path="url(#p44a33072e7)" style="fill: #1f77b4"/>
   </g>
   <g id="patch_191">
    <path d="M 311.83973 307.018727 
L 313.106242 307.018727 
L 313.106242 299.003067 
L 311.83973 299.003067 
z
" clip-path="url(#p44a33072e7)" style="fill: #1f77b4"/>
   </g>
   <g id="patch_192">
    <path d="M 313.106242 307.018727 
L 314.372754 307.018727 
L 314.372754 299.323694 
L 313.106242 299.323694 
z
" clip-path="url(#p44a33072e7)" style="fill: #1f77b4"/>
   </g>
   <g id="patch_193">
    <path d="M 314.372754 307.018727 
L 315.639266 307.018727 
L 315.639266 298.201501 
L 314.372754 298.201501 
z
" clip-path="url(#p44a33072e7)" style="fill: #1f77b4"/>
   </g>
   <g id="patch_194">
    <path d="M 315.639266 307.018727 
L 316.905778 307.018727 
L 316.905778 301.087139 
L 315.639266 301.087139 
z
" clip-path="url(#p44a33072e7)" style="fill: #1f77b4"/>
   </g>
   <g id="patch_195">
    <path d="M 316.905778 307.018727 
L 318.17229 307.018727 
L 318.17229 300.926826 
L 316.905778 300.926826 
z
" clip-path="url(#p44a33072e7)" style="fill: #1f77b4"/>
   </g>
   <g id="patch_196">
    <path d="M 318.17229 307.018727 
L 319.438801 307.018727 
L 319.438801 300.606199 
L 318.17229 300.606199 
z
" clip-path="url(#p44a33072e7)" style="fill: #1f77b4"/>
   </g>
   <g id="patch_197">
    <path d="M 319.438801 307.018727 
L 320.705313 307.018727 
L 320.705313 302.690271 
L 319.438801 302.690271 
z
" clip-path="url(#p44a33072e7)" style="fill: #1f77b4"/>
   </g>
   <g id="patch_198">
    <path d="M 320.705313 307.018727 
L 321.971825 307.018727 
L 321.971825 300.606199 
L 320.705313 300.606199 
z
" clip-path="url(#p44a33072e7)" style="fill: #1f77b4"/>
   </g>
   <g id="patch_199">
    <path d="M 321.971825 307.018727 
L 323.238337 307.018727 
L 323.238337 300.12526 
L 321.971825 300.12526 
z
" clip-path="url(#p44a33072e7)" style="fill: #1f77b4"/>
   </g>
   <g id="patch_200">
    <path d="M 323.238337 307.018727 
L 324.504849 307.018727 
L 324.504849 302.529958 
L 323.238337 302.529958 
z
" clip-path="url(#p44a33072e7)" style="fill: #1f77b4"/>
   </g>
   <g id="patch_201">
    <path d="M 324.504849 307.018727 
L 325.771361 307.018727 
L 325.771361 302.369645 
L 324.504849 302.369645 
z
" clip-path="url(#p44a33072e7)" style="fill: #1f77b4"/>
   </g>
   <g id="patch_202">
    <path d="M 325.771361 307.018727 
L 327.037873 307.018727 
L 327.037873 301.568079 
L 325.771361 301.568079 
z
" clip-path="url(#p44a33072e7)" style="fill: #1f77b4"/>
   </g>
   <g id="patch_203">
    <path d="M 327.037873 307.018727 
L 328.304384 307.018727 
L 328.304384 303.331524 
L 327.037873 303.331524 
z
" clip-path="url(#p44a33072e7)" style="fill: #1f77b4"/>
   </g>
   <g id="patch_204">
    <path d="M 328.304384 307.018727 
L 329.570896 307.018727 
L 329.570896 301.728392 
L 328.304384 301.728392 
z
" clip-path="url(#p44a33072e7)" style="fill: #1f77b4"/>
   </g>
   <g id="patch_205">
    <path d="M 329.570896 307.018727 
L 330.837408 307.018727 
L 330.837408 301.728392 
L 329.570896 301.728392 
z
" clip-path="url(#p44a33072e7)" style="fill: #1f77b4"/>
   </g>
   <g id="patch_206">
    <path d="M 330.837408 307.018727 
L 332.10392 307.018727 
L 332.10392 303.331524 
L 330.837408 303.331524 
z
" clip-path="url(#p44a33072e7)" style="fill: #1f77b4"/>
   </g>
   <g id="patch_207">
    <path d="M 332.10392 307.018727 
L 333.370432 307.018727 
L 333.370432 302.529958 
L 332.10392 302.529958 
z
" clip-path="url(#p44a33072e7)" style="fill: #1f77b4"/>
   </g>
   <g id="patch_208">
    <path d="M 333.370432 307.018727 
L 334.636944 307.018727 
L 334.636944 302.049018 
L 333.370432 302.049018 
z
" clip-path="url(#p44a33072e7)" style="fill: #1f77b4"/>
   </g>
   <g id="patch_209">
    <path d="M 334.636944 307.018727 
L 335.903456 307.018727 
L 335.903456 301.407765 
L 334.636944 301.407765 
z
" clip-path="url(#p44a33072e7)" style="fill: #1f77b4"/>
   </g>
   <g id="patch_210">
    <path d="M 335.903456 307.018727 
L 337.169967 307.018727 
L 337.169967 301.087139 
L 335.903456 301.087139 
z
" clip-path="url(#p44a33072e7)" style="fill: #1f77b4"/>
   </g>
   <g id="patch_211">
    <path d="M 337.169967 307.018727 
L 338.436479 307.018727 
L 338.436479 301.568079 
L 337.169967 301.568079 
z
" clip-path="url(#p44a33072e7)" style="fill: #1f77b4"/>
   </g>
   <g id="patch_212">
    <path d="M 338.436479 307.018727 
L 339.702991 307.018727 
L 339.702991 302.209331 
L 338.436479 302.209331 
z
" clip-path="url(#p44a33072e7)" style="fill: #1f77b4"/>
   </g>
   <g id="patch_213">
    <path d="M 339.702991 307.018727 
L 340.969503 307.018727 
L 340.969503 301.888705 
L 339.702991 301.888705 
z
" clip-path="url(#p44a33072e7)" style="fill: #1f77b4"/>
   </g>
   <g id="patch_214">
    <path d="M 340.969503 307.018727 
L 342.236015 307.018727 
L 342.236015 300.926826 
L 340.969503 300.926826 
z
" clip-path="url(#p44a33072e7)" style="fill: #1f77b4"/>
   </g>
   <g id="patch_215">
    <path d="M 342.236015 307.018727 
L 343.502527 307.018727 
L 343.502527 301.888705 
L 342.236015 301.888705 
z
" clip-path="url(#p44a33072e7)" style="fill: #1f77b4"/>
   </g>
   <g id="patch_216">
    <path d="M 343.502527 307.018727 
L 344.769038 307.018727 
L 344.769038 300.766512 
L 343.502527 300.766512 
z
" clip-path="url(#p44a33072e7)" style="fill: #1f77b4"/>
   </g>
   <g id="patch_217">
    <path d="M 344.769038 307.018727 
L 346.03555 307.018727 
L 346.03555 302.049018 
L 344.769038 302.049018 
z
" clip-path="url(#p44a33072e7)" style="fill: #1f77b4"/>
   </g>
   <g id="patch_218">
    <path d="M 346.03555 307.018727 
L 347.302062 307.018727 
L 347.302062 300.12526 
L 346.03555 300.12526 
z
" clip-path="url(#p44a33072e7)" style="fill: #1f77b4"/>
   </g>
   <g id="patch_219">
    <path d="M 347.302062 307.018727 
L 348.568574 307.018727 
L 348.568574 300.766512 
L 347.302062 300.766512 
z
" clip-path="url(#p44a33072e7)" style="fill: #1f77b4"/>
   </g>
   <g id="patch_220">
    <path d="M 348.568574 307.018727 
L 349.835086 307.018727 
L 349.835086 301.087139 
L 348.568574 301.087139 
z
" clip-path="url(#p44a33072e7)" style="fill: #1f77b4"/>
   </g>
   <g id="patch_221">
    <path d="M 349.835086 307.018727 
L 351.101598 307.018727 
L 351.101598 303.491837 
L 349.835086 303.491837 
z
" clip-path="url(#p44a33072e7)" style="fill: #1f77b4"/>
   </g>
   <g id="patch_222">
    <path d="M 351.101598 307.018727 
L 352.36811 307.018727 
L 352.36811 301.407765 
L 351.101598 301.407765 
z
" clip-path="url(#p44a33072e7)" style="fill: #1f77b4"/>
   </g>
   <g id="patch_223">
    <path d="M 352.36811 307.018727 
L 353.634621 307.018727 
L 353.634621 301.087139 
L 352.36811 301.087139 
z
" clip-path="url(#p44a33072e7)" style="fill: #1f77b4"/>
   </g>
   <g id="patch_224">
    <path d="M 353.634621 307.018727 
L 354.901133 307.018727 
L 354.901133 301.888705 
L 353.634621 301.888705 
z
" clip-path="url(#p44a33072e7)" style="fill: #1f77b4"/>
   </g>
   <g id="patch_225">
    <path d="M 354.901133 307.018727 
L 356.167645 307.018727 
L 356.167645 302.209331 
L 354.901133 302.209331 
z
" clip-path="url(#p44a33072e7)" style="fill: #1f77b4"/>
   </g>
   <g id="patch_226">
    <path d="M 356.167645 307.018727 
L 357.434157 307.018727 
L 357.434157 299.964946 
L 356.167645 299.964946 
z
" clip-path="url(#p44a33072e7)" style="fill: #1f77b4"/>
   </g>
   <g id="patch_227">
    <path d="M 357.434157 307.018727 
L 358.700669 307.018727 
L 358.700669 300.285573 
L 357.434157 300.285573 
z
" clip-path="url(#p44a33072e7)" style="fill: #1f77b4"/>
   </g>
   <g id="patch_228">
    <path d="M 358.700669 307.018727 
L 359.967181 307.018727 
L 359.967181 302.049018 
L 358.700669 302.049018 
z
" clip-path="url(#p44a33072e7)" style="fill: #1f77b4"/>
   </g>
   <g id="patch_229">
    <path d="M 359.967181 307.018727 
L 361.233693 307.018727 
L 361.233693 303.010897 
L 359.967181 303.010897 
z
" clip-path="url(#p44a33072e7)" style="fill: #1f77b4"/>
   </g>
   <g id="patch_230">
    <path d="M 361.233693 307.018727 
L 362.500204 307.018727 
L 362.500204 301.568079 
L 361.233693 301.568079 
z
" clip-path="url(#p44a33072e7)" style="fill: #1f77b4"/>
   </g>
   <g id="patch_231">
    <path d="M 362.500204 307.018727 
L 363.766716 307.018727 
L 363.766716 300.606199 
L 362.500204 300.606199 
z
" clip-path="url(#p44a33072e7)" style="fill: #1f77b4"/>
   </g>
   <g id="patch_232">
    <path d="M 363.766716 307.018727 
L 365.033228 307.018727 
L 365.033228 300.606199 
L 363.766716 300.606199 
z
" clip-path="url(#p44a33072e7)" style="fill: #1f77b4"/>
   </g>
   <g id="patch_233">
    <path d="M 365.033228 307.018727 
L 366.29974 307.018727 
L 366.29974 295.63649 
L 365.033228 295.63649 
z
" clip-path="url(#p44a33072e7)" style="fill: #1f77b4"/>
   </g>
   <g id="patch_234">
    <path d="M 366.29974 307.018727 
L 367.566252 307.018727 
L 367.566252 300.12526 
L 366.29974 300.12526 
z
" clip-path="url(#p44a33072e7)" style="fill: #1f77b4"/>
   </g>
   <g id="patch_235">
    <path d="M 367.566252 307.018727 
L 368.832764 307.018727 
L 368.832764 299.484007 
L 367.566252 299.484007 
z
" clip-path="url(#p44a33072e7)" style="fill: #1f77b4"/>
   </g>
   <g id="patch_236">
    <path d="M 368.832764 307.018727 
L 370.099275 307.018727 
L 370.099275 296.918996 
L 368.832764 296.918996 
z
" clip-path="url(#p44a33072e7)" style="fill: #1f77b4"/>
   </g>
   <g id="patch_237">
    <path d="M 370.099275 307.018727 
L 371.365787 307.018727 
L 371.365787 299.964946 
L 370.099275 299.964946 
z
" clip-path="url(#p44a33072e7)" style="fill: #1f77b4"/>
   </g>
   <g id="patch_238">
    <path d="M 371.365787 307.018727 
L 372.632299 307.018727 
L 372.632299 300.606199 
L 371.365787 300.606199 
z
" clip-path="url(#p44a33072e7)" style="fill: #1f77b4"/>
   </g>
   <g id="patch_239">
    <path d="M 372.632299 307.018727 
L 373.898811 307.018727 
L 373.898811 298.522128 
L 372.632299 298.522128 
z
" clip-path="url(#p44a33072e7)" style="fill: #1f77b4"/>
   </g>
   <g id="patch_240">
    <path d="M 373.898811 307.018727 
L 375.165323 307.018727 
L 375.165323 300.285573 
L 373.898811 300.285573 
z
" clip-path="url(#p44a33072e7)" style="fill: #1f77b4"/>
   </g>
   <g id="patch_241">
    <path d="M 375.165323 307.018727 
L 376.431835 307.018727 
L 376.431835 299.964946 
L 375.165323 299.964946 
z
" clip-path="url(#p44a33072e7)" style="fill: #1f77b4"/>
   </g>
   <g id="patch_242">
    <path d="M 376.431835 307.018727 
L 377.698347 307.018727 
L 377.698347 301.087139 
L 376.431835 301.087139 
z
" clip-path="url(#p44a33072e7)" style="fill: #1f77b4"/>
   </g>
   <g id="patch_243">
    <path d="M 377.698347 307.018727 
L 378.964858 307.018727 
L 378.964858 297.239622 
L 377.698347 297.239622 
z
" clip-path="url(#p44a33072e7)" style="fill: #1f77b4"/>
   </g>
   <g id="patch_244">
    <path d="M 378.964858 307.018727 
L 380.23137 307.018727 
L 380.23137 299.804633 
L 378.964858 299.804633 
z
" clip-path="url(#p44a33072e7)" style="fill: #1f77b4"/>
   </g>
   <g id="patch_245">
    <path d="M 380.23137 307.018727 
L 381.497882 307.018727 
L 381.497882 300.445886 
L 380.23137 300.445886 
z
" clip-path="url(#p44a33072e7)" style="fill: #1f77b4"/>
   </g>
   <g id="patch_246">
    <path d="M 381.497882 307.018727 
L 382.764394 307.018727 
L 382.764394 299.003067 
L 381.497882 299.003067 
z
" clip-path="url(#p44a33072e7)" style="fill: #1f77b4"/>
   </g>
   <g id="patch_247">
    <path d="M 382.764394 307.018727 
L 384.030906 307.018727 
L 384.030906 299.964946 
L 382.764394 299.964946 
z
" clip-path="url(#p44a33072e7)" style="fill: #1f77b4"/>
   </g>
   <g id="patch_248">
    <path d="M 384.030906 307.018727 
L 385.297418 307.018727 
L 385.297418 300.606199 
L 384.030906 300.606199 
z
" clip-path="url(#p44a33072e7)" style="fill: #1f77b4"/>
   </g>
   <g id="patch_249">
    <path d="M 385.297418 307.018727 
L 386.563929 307.018727 
L 386.563929 298.522128 
L 385.297418 298.522128 
z
" clip-path="url(#p44a33072e7)" style="fill: #1f77b4"/>
   </g>
   <g id="patch_250">
    <path d="M 386.563929 307.018727 
L 387.830441 307.018727 
L 387.830441 298.361814 
L 386.563929 298.361814 
z
" clip-path="url(#p44a33072e7)" style="fill: #1f77b4"/>
   </g>
   <g id="patch_251">
    <path d="M 387.830441 307.018727 
L 389.096953 307.018727 
L 389.096953 297.399935 
L 387.830441 297.399935 
z
" clip-path="url(#p44a33072e7)" style="fill: #1f77b4"/>
   </g>
   <g id="patch_252">
    <path d="M 389.096953 307.018727 
L 390.363465 307.018727 
L 390.363465 299.484007 
L 389.096953 299.484007 
z
" clip-path="url(#p44a33072e7)" style="fill: #1f77b4"/>
   </g>
   <g id="patch_253">
    <path d="M 390.363465 307.018727 
L 391.629977 307.018727 
L 391.629977 298.201501 
L 390.363465 298.201501 
z
" clip-path="url(#p44a33072e7)" style="fill: #1f77b4"/>
   </g>
   <g id="patch_254">
    <path d="M 391.629977 307.018727 
L 392.896489 307.018727 
L 392.896489 298.682441 
L 391.629977 298.682441 
z
" clip-path="url(#p44a33072e7)" style="fill: #1f77b4"/>
   </g>
   <g id="patch_255">
    <path d="M 392.896489 307.018727 
L 394.163001 307.018727 
L 394.163001 298.041188 
L 392.896489 298.041188 
z
" clip-path="url(#p44a33072e7)" style="fill: #1f77b4"/>
   </g>
   <g id="patch_256">
    <path d="M 394.163001 307.018727 
L 395.429512 307.018727 
L 395.429512 298.201501 
L 394.163001 298.201501 
z
" clip-path="url(#p44a33072e7)" style="fill: #1f77b4"/>
   </g>
   <g id="patch_257">
    <path d="M 395.429512 307.018727 
L 396.696024 307.018727 
L 396.696024 291.788973 
L 395.429512 291.788973 
z
" clip-path="url(#p44a33072e7)" style="fill: #1f77b4"/>
   </g>
   <g id="patch_258">
    <path d="M 396.696024 307.018727 
L 397.962536 307.018727 
L 397.962536 274.475147 
L 396.696024 274.475147 
z
" clip-path="url(#p44a33072e7)" style="fill: #1f77b4"/>
   </g>
   <g id="matplotlib.axis_1">
    <g id="xtick_1">
     <g id="line2d_1">
      <defs>
       <path id="m81de3be539" d="M 0 0 
L 0 3.5 
" style="stroke: #000000; stroke-width: 0.8"/>
      </defs>
      <g>
       <use xlink:href="#m81de3be539" x="73.735503" y="307.018727" style="stroke: #000000; stroke-width: 0.8"/>
      </g>
     </g>
     <g id="text_1">
      <!-- 0 -->
      <g transform="translate(70.554253 321.617165) scale(0.1 -0.1)">
       <defs>
        <path id="DejaVuSans-30" d="M 2034 4250 
Q 1547 4250 1301 3770 
Q 1056 3291 1056 2328 
Q 1056 1369 1301 889 
Q 1547 409 2034 409 
Q 2525 409 2770 889 
Q 3016 1369 3016 2328 
Q 3016 3291 2770 3770 
Q 2525 4250 2034 4250 
z
M 2034 4750 
Q 2819 4750 3233 4129 
Q 3647 3509 3647 2328 
Q 3647 1150 3233 529 
Q 2819 -91 2034 -91 
Q 1250 -91 836 529 
Q 422 1150 422 2328 
Q 422 3509 836 4129 
Q 1250 4750 2034 4750 
z
" transform="scale(0.015625)"/>
       </defs>
       <use xlink:href="#DejaVuSans-30"/>
      </g>
     </g>
    </g>
    <g id="xtick_2">
     <g id="line2d_2">
      <g>
       <use xlink:href="#m81de3be539" x="137.309431" y="307.018727" style="stroke: #000000; stroke-width: 0.8"/>
      </g>
     </g>
     <g id="text_2">
      <!-- 50 -->
      <g transform="translate(130.946931 321.617165) scale(0.1 -0.1)">
       <defs>
        <path id="DejaVuSans-35" d="M 691 4666 
L 3169 4666 
L 3169 4134 
L 1269 4134 
L 1269 2991 
Q 1406 3038 1543 3061 
Q 1681 3084 1819 3084 
Q 2600 3084 3056 2656 
Q 3513 2228 3513 1497 
Q 3513 744 3044 326 
Q 2575 -91 1722 -91 
Q 1428 -91 1123 -41 
Q 819 9 494 109 
L 494 744 
Q 775 591 1075 516 
Q 1375 441 1709 441 
Q 2250 441 2565 725 
Q 2881 1009 2881 1497 
Q 2881 1984 2565 2268 
Q 2250 2553 1709 2553 
Q 1456 2553 1204 2497 
Q 953 2441 691 2322 
L 691 4666 
z
" transform="scale(0.015625)"/>
       </defs>
       <use xlink:href="#DejaVuSans-35"/>
       <use xlink:href="#DejaVuSans-30" transform="translate(63.623047 0)"/>
      </g>
     </g>
    </g>
    <g id="xtick_3">
     <g id="line2d_3">
      <g>
       <use xlink:href="#m81de3be539" x="200.883359" y="307.018727" style="stroke: #000000; stroke-width: 0.8"/>
      </g>
     </g>
     <g id="text_3">
      <!-- 100 -->
      <g transform="translate(191.339609 321.617165) scale(0.1 -0.1)">
       <defs>
        <path id="DejaVuSans-31" d="M 794 531 
L 1825 531 
L 1825 4091 
L 703 3866 
L 703 4441 
L 1819 4666 
L 2450 4666 
L 2450 531 
L 3481 531 
L 3481 0 
L 794 0 
L 794 531 
z
" transform="scale(0.015625)"/>
       </defs>
       <use xlink:href="#DejaVuSans-31"/>
       <use xlink:href="#DejaVuSans-30" transform="translate(63.623047 0)"/>
       <use xlink:href="#DejaVuSans-30" transform="translate(127.246094 0)"/>
      </g>
     </g>
    </g>
    <g id="xtick_4">
     <g id="line2d_4">
      <g>
       <use xlink:href="#m81de3be539" x="264.457287" y="307.018727" style="stroke: #000000; stroke-width: 0.8"/>
      </g>
     </g>
     <g id="text_4">
      <!-- 150 -->
      <g transform="translate(254.913537 321.617165) scale(0.1 -0.1)">
       <use xlink:href="#DejaVuSans-31"/>
       <use xlink:href="#DejaVuSans-35" transform="translate(63.623047 0)"/>
       <use xlink:href="#DejaVuSans-30" transform="translate(127.246094 0)"/>
      </g>
     </g>
    </g>
    <g id="xtick_5">
     <g id="line2d_5">
      <g>
       <use xlink:href="#m81de3be539" x="328.031215" y="307.018727" style="stroke: #000000; stroke-width: 0.8"/>
      </g>
     </g>
     <g id="text_5">
      <!-- 200 -->
      <g transform="translate(318.487465 321.617165) scale(0.1 -0.1)">
       <defs>
        <path id="DejaVuSans-32" d="M 1228 531 
L 3431 531 
L 3431 0 
L 469 0 
L 469 531 
Q 828 903 1448 1529 
Q 2069 2156 2228 2338 
Q 2531 2678 2651 2914 
Q 2772 3150 2772 3378 
Q 2772 3750 2511 3984 
Q 2250 4219 1831 4219 
Q 1534 4219 1204 4116 
Q 875 4013 500 3803 
L 500 4441 
Q 881 4594 1212 4672 
Q 1544 4750 1819 4750 
Q 2544 4750 2975 4387 
Q 3406 4025 3406 3419 
Q 3406 3131 3298 2873 
Q 3191 2616 2906 2266 
Q 2828 2175 2409 1742 
Q 1991 1309 1228 531 
z
" transform="scale(0.015625)"/>
       </defs>
       <use xlink:href="#DejaVuSans-32"/>
       <use xlink:href="#DejaVuSans-30" transform="translate(63.623047 0)"/>
       <use xlink:href="#DejaVuSans-30" transform="translate(127.246094 0)"/>
      </g>
     </g>
    </g>
    <g id="xtick_6">
     <g id="line2d_6">
      <g>
       <use xlink:href="#m81de3be539" x="391.605143" y="307.018727" style="stroke: #000000; stroke-width: 0.8"/>
      </g>
     </g>
     <g id="text_6">
      <!-- 250 -->
      <g transform="translate(382.061393 321.617165) scale(0.1 -0.1)">
       <use xlink:href="#DejaVuSans-32"/>
       <use xlink:href="#DejaVuSans-35" transform="translate(63.623047 0)"/>
       <use xlink:href="#DejaVuSans-30" transform="translate(127.246094 0)"/>
      </g>
     </g>
    </g>
    <g id="text_7">
     <!-- Warto piksela -->
     <g transform="translate(196.549019 335.69529) scale(0.1 -0.1)">
      <defs>
       <path id="DejaVuSans-57" d="M 213 4666 
L 850 4666 
L 1831 722 
L 2809 4666 
L 3519 4666 
L 4500 722 
L 5478 4666 
L 6119 4666 
L 4947 0 
L 4153 0 
L 3169 4050 
L 2175 0 
L 1381 0 
L 213 4666 
z
" transform="scale(0.015625)"/>
       <path id="DejaVuSans-61" d="M 2194 1759 
Q 1497 1759 1228 1600 
Q 959 1441 959 1056 
Q 959 750 1161 570 
Q 1363 391 1709 391 
Q 2188 391 2477 730 
Q 2766 1069 2766 1631 
L 2766 1759 
L 2194 1759 
z
M 3341 1997 
L 3341 0 
L 2766 0 
L 2766 531 
Q 2569 213 2275 61 
Q 1981 -91 1556 -91 
Q 1019 -91 701 211 
Q 384 513 384 1019 
Q 384 1609 779 1909 
Q 1175 2209 1959 2209 
L 2766 2209 
L 2766 2266 
Q 2766 2663 2505 2880 
Q 2244 3097 1772 3097 
Q 1472 3097 1187 3025 
Q 903 2953 641 2809 
L 641 3341 
Q 956 3463 1253 3523 
Q 1550 3584 1831 3584 
Q 2591 3584 2966 3190 
Q 3341 2797 3341 1997 
z
" transform="scale(0.015625)"/>
       <path id="DejaVuSans-72" d="M 2631 2963 
Q 2534 3019 2420 3045 
Q 2306 3072 2169 3072 
Q 1681 3072 1420 2755 
Q 1159 2438 1159 1844 
L 1159 0 
L 581 0 
L 581 3500 
L 1159 3500 
L 1159 2956 
Q 1341 3275 1631 3429 
Q 1922 3584 2338 3584 
Q 2397 3584 2469 3576 
Q 2541 3569 2628 3553 
L 2631 2963 
z
" transform="scale(0.015625)"/>
       <path id="DejaVuSans-74" d="M 1172 4494 
L 1172 3500 
L 2356 3500 
L 2356 3053 
L 1172 3053 
L 1172 1153 
Q 1172 725 1289 603 
Q 1406 481 1766 481 
L 2356 481 
L 2356 0 
L 1766 0 
Q 1100 0 847 248 
Q 594 497 594 1153 
L 594 3053 
L 172 3053 
L 172 3500 
L 594 3500 
L 594 4494 
L 1172 4494 
z
" transform="scale(0.015625)"/>
       <path id="DejaVuSans-6f" d="M 1959 3097 
Q 1497 3097 1228 2736 
Q 959 2375 959 1747 
Q 959 1119 1226 758 
Q 1494 397 1959 397 
Q 2419 397 2687 759 
Q 2956 1122 2956 1747 
Q 2956 2369 2687 2733 
Q 2419 3097 1959 3097 
z
M 1959 3584 
Q 2709 3584 3137 3096 
Q 3566 2609 3566 1747 
Q 3566 888 3137 398 
Q 2709 -91 1959 -91 
Q 1206 -91 779 398 
Q 353 888 353 1747 
Q 353 2609 779 3096 
Q 1206 3584 1959 3584 
z
" transform="scale(0.015625)"/>
       <path id="DejaVuSans-15b" d="M 2242 5119 
L 2864 5119 
L 1846 3944 
L 1367 3944 
L 2242 5119 
z
M 2834 3397 
L 2834 2853 
Q 2591 2978 2328 3040 
Q 2066 3103 1784 3103 
Q 1356 3103 1142 2972 
Q 928 2841 928 2578 
Q 928 2378 1081 2264 
Q 1234 2150 1697 2047 
L 1894 2003 
Q 2506 1872 2764 1633 
Q 3022 1394 3022 966 
Q 3022 478 2636 193 
Q 2250 -91 1575 -91 
Q 1294 -91 989 -36 
Q 684 19 347 128 
L 347 722 
Q 666 556 975 473 
Q 1284 391 1588 391 
Q 1994 391 2212 530 
Q 2431 669 2431 922 
Q 2431 1156 2273 1281 
Q 2116 1406 1581 1522 
L 1381 1569 
Q 847 1681 609 1914 
Q 372 2147 372 2553 
Q 372 3047 722 3315 
Q 1072 3584 1716 3584 
Q 2034 3584 2315 3537 
Q 2597 3491 2834 3397 
z
" transform="scale(0.015625)"/>
       <path id="DejaVuSans-107" d="M 3122 3366 
L 3122 2828 
Q 2878 2963 2633 3030 
Q 2388 3097 2138 3097 
Q 1578 3097 1268 2742 
Q 959 2388 959 1747 
Q 959 1106 1268 751 
Q 1578 397 2138 397 
Q 2388 397 2633 464 
Q 2878 531 3122 666 
L 3122 134 
Q 2881 22 2623 -34 
Q 2366 -91 2075 -91 
Q 1284 -91 818 406 
Q 353 903 353 1747 
Q 353 2603 823 3093 
Q 1294 3584 2113 3584 
Q 2378 3584 2631 3529 
Q 2884 3475 3122 3366 
z
M 2466 5119 
L 3088 5119 
L 2070 3944 
L 1591 3944 
L 2466 5119 
z
" transform="scale(0.015625)"/>
       <path id="DejaVuSans-20" transform="scale(0.015625)"/>
       <path id="DejaVuSans-70" d="M 1159 525 
L 1159 -1331 
L 581 -1331 
L 581 3500 
L 1159 3500 
L 1159 2969 
Q 1341 3281 1617 3432 
Q 1894 3584 2278 3584 
Q 2916 3584 3314 3078 
Q 3713 2572 3713 1747 
Q 3713 922 3314 415 
Q 2916 -91 2278 -91 
Q 1894 -91 1617 61 
Q 1341 213 1159 525 
z
M 3116 1747 
Q 3116 2381 2855 2742 
Q 2594 3103 2138 3103 
Q 1681 3103 1420 2742 
Q 1159 2381 1159 1747 
Q 1159 1113 1420 752 
Q 1681 391 2138 391 
Q 2594 391 2855 752 
Q 3116 1113 3116 1747 
z
" transform="scale(0.015625)"/>
       <path id="DejaVuSans-69" d="M 603 3500 
L 1178 3500 
L 1178 0 
L 603 0 
L 603 3500 
z
M 603 4863 
L 1178 4863 
L 1178 4134 
L 603 4134 
L 603 4863 
z
" transform="scale(0.015625)"/>
       <path id="DejaVuSans-6b" d="M 581 4863 
L 1159 4863 
L 1159 1991 
L 2875 3500 
L 3609 3500 
L 1753 1863 
L 3688 0 
L 2938 0 
L 1159 1709 
L 1159 0 
L 581 0 
L 581 4863 
z
" transform="scale(0.015625)"/>
       <path id="DejaVuSans-73" d="M 2834 3397 
L 2834 2853 
Q 2591 2978 2328 3040 
Q 2066 3103 1784 3103 
Q 1356 3103 1142 2972 
Q 928 2841 928 2578 
Q 928 2378 1081 2264 
Q 1234 2150 1697 2047 
L 1894 2003 
Q 2506 1872 2764 1633 
Q 3022 1394 3022 966 
Q 3022 478 2636 193 
Q 2250 -91 1575 -91 
Q 1294 -91 989 -36 
Q 684 19 347 128 
L 347 722 
Q 666 556 975 473 
Q 1284 391 1588 391 
Q 1994 391 2212 530 
Q 2431 669 2431 922 
Q 2431 1156 2273 1281 
Q 2116 1406 1581 1522 
L 1381 1569 
Q 847 1681 609 1914 
Q 372 2147 372 2553 
Q 372 3047 722 3315 
Q 1072 3584 1716 3584 
Q 2034 3584 2315 3537 
Q 2597 3491 2834 3397 
z
" transform="scale(0.015625)"/>
       <path id="DejaVuSans-65" d="M 3597 1894 
L 3597 1613 
L 953 1613 
Q 991 1019 1311 708 
Q 1631 397 2203 397 
Q 2534 397 2845 478 
Q 3156 559 3463 722 
L 3463 178 
Q 3153 47 2828 -22 
Q 2503 -91 2169 -91 
Q 1331 -91 842 396 
Q 353 884 353 1716 
Q 353 2575 817 3079 
Q 1281 3584 2069 3584 
Q 2775 3584 3186 3129 
Q 3597 2675 3597 1894 
z
M 3022 2063 
Q 3016 2534 2758 2815 
Q 2500 3097 2075 3097 
Q 1594 3097 1305 2825 
Q 1016 2553 972 2059 
L 3022 2063 
z
" transform="scale(0.015625)"/>
       <path id="DejaVuSans-6c" d="M 603 4863 
L 1178 4863 
L 1178 0 
L 603 0 
L 603 4863 
z
" transform="scale(0.015625)"/>
      </defs>
      <use xlink:href="#DejaVuSans-57"/>
      <use xlink:href="#DejaVuSans-61" transform="translate(92.501953 0)"/>
      <use xlink:href="#DejaVuSans-72" transform="translate(153.78125 0)"/>
      <use xlink:href="#DejaVuSans-74" transform="translate(194.894531 0)"/>
      <use xlink:href="#DejaVuSans-6f" transform="translate(234.103516 0)"/>
      <use xlink:href="#DejaVuSans-15b" transform="translate(295.285156 0)"/>
      <use xlink:href="#DejaVuSans-107" transform="translate(347.384766 0)"/>
      <use xlink:href="#DejaVuSans-20" transform="translate(402.365234 0)"/>
      <use xlink:href="#DejaVuSans-70" transform="translate(434.152344 0)"/>
      <use xlink:href="#DejaVuSans-69" transform="translate(497.628906 0)"/>
      <use xlink:href="#DejaVuSans-6b" transform="translate(525.412109 0)"/>
      <use xlink:href="#DejaVuSans-73" transform="translate(583.322266 0)"/>
      <use xlink:href="#DejaVuSans-65" transform="translate(635.421875 0)"/>
      <use xlink:href="#DejaVuSans-6c" transform="translate(696.945312 0)"/>
      <use xlink:href="#DejaVuSans-61" transform="translate(724.728516 0)"/>
     </g>
    </g>
   </g>
   <g id="matplotlib.axis_2">
    <g id="ytick_1">
     <g id="line2d_7">
      <defs>
       <path id="maad9b0aeb6" d="M 0 0 
L -3.5 0 
" style="stroke: #000000; stroke-width: 0.8"/>
      </defs>
      <g>
       <use xlink:href="#maad9b0aeb6" x="57.524151" y="307.018727" style="stroke: #000000; stroke-width: 0.8"/>
      </g>
     </g>
     <g id="text_8">
      <!-- 0 -->
      <g transform="translate(44.161651 310.817946) scale(0.1 -0.1)">
       <use xlink:href="#DejaVuSans-30"/>
      </g>
     </g>
    </g>
    <g id="ytick_2">
     <g id="line2d_8">
      <g>
       <use xlink:href="#maad9b0aeb6" x="57.524151" y="274.956087" style="stroke: #000000; stroke-width: 0.8"/>
      </g>
     </g>
     <g id="text_9">
      <!-- 200 -->
      <g transform="translate(31.436651 278.755306) scale(0.1 -0.1)">
       <use xlink:href="#DejaVuSans-32"/>
       <use xlink:href="#DejaVuSans-30" transform="translate(63.623047 0)"/>
       <use xlink:href="#DejaVuSans-30" transform="translate(127.246094 0)"/>
      </g>
     </g>
    </g>
    <g id="ytick_3">
     <g id="line2d_9">
      <g>
       <use xlink:href="#maad9b0aeb6" x="57.524151" y="242.893447" style="stroke: #000000; stroke-width: 0.8"/>
      </g>
     </g>
     <g id="text_10">
      <!-- 400 -->
      <g transform="translate(31.436651 246.692665) scale(0.1 -0.1)">
       <defs>
        <path id="DejaVuSans-34" d="M 2419 4116 
L 825 1625 
L 2419 1625 
L 2419 4116 
z
M 2253 4666 
L 3047 4666 
L 3047 1625 
L 3713 1625 
L 3713 1100 
L 3047 1100 
L 3047 0 
L 2419 0 
L 2419 1100 
L 313 1100 
L 313 1709 
L 2253 4666 
z
" transform="scale(0.015625)"/>
       </defs>
       <use xlink:href="#DejaVuSans-34"/>
       <use xlink:href="#DejaVuSans-30" transform="translate(63.623047 0)"/>
       <use xlink:href="#DejaVuSans-30" transform="translate(127.246094 0)"/>
      </g>
     </g>
    </g>
    <g id="ytick_4">
     <g id="line2d_10">
      <g>
       <use xlink:href="#maad9b0aeb6" x="57.524151" y="210.830806" style="stroke: #000000; stroke-width: 0.8"/>
      </g>
     </g>
     <g id="text_11">
      <!-- 600 -->
      <g transform="translate(31.436651 214.630025) scale(0.1 -0.1)">
       <defs>
        <path id="DejaVuSans-36" d="M 2113 2584 
Q 1688 2584 1439 2293 
Q 1191 2003 1191 1497 
Q 1191 994 1439 701 
Q 1688 409 2113 409 
Q 2538 409 2786 701 
Q 3034 994 3034 1497 
Q 3034 2003 2786 2293 
Q 2538 2584 2113 2584 
z
M 3366 4563 
L 3366 3988 
Q 3128 4100 2886 4159 
Q 2644 4219 2406 4219 
Q 1781 4219 1451 3797 
Q 1122 3375 1075 2522 
Q 1259 2794 1537 2939 
Q 1816 3084 2150 3084 
Q 2853 3084 3261 2657 
Q 3669 2231 3669 1497 
Q 3669 778 3244 343 
Q 2819 -91 2113 -91 
Q 1303 -91 875 529 
Q 447 1150 447 2328 
Q 447 3434 972 4092 
Q 1497 4750 2381 4750 
Q 2619 4750 2861 4703 
Q 3103 4656 3366 4563 
z
" transform="scale(0.015625)"/>
       </defs>
       <use xlink:href="#DejaVuSans-36"/>
       <use xlink:href="#DejaVuSans-30" transform="translate(63.623047 0)"/>
       <use xlink:href="#DejaVuSans-30" transform="translate(127.246094 0)"/>
      </g>
     </g>
    </g>
    <g id="ytick_5">
     <g id="line2d_11">
      <g>
       <use xlink:href="#maad9b0aeb6" x="57.524151" y="178.768166" style="stroke: #000000; stroke-width: 0.8"/>
      </g>
     </g>
     <g id="text_12">
      <!-- 800 -->
      <g transform="translate(31.436651 182.567385) scale(0.1 -0.1)">
       <defs>
        <path id="DejaVuSans-38" d="M 2034 2216 
Q 1584 2216 1326 1975 
Q 1069 1734 1069 1313 
Q 1069 891 1326 650 
Q 1584 409 2034 409 
Q 2484 409 2743 651 
Q 3003 894 3003 1313 
Q 3003 1734 2745 1975 
Q 2488 2216 2034 2216 
z
M 1403 2484 
Q 997 2584 770 2862 
Q 544 3141 544 3541 
Q 544 4100 942 4425 
Q 1341 4750 2034 4750 
Q 2731 4750 3128 4425 
Q 3525 4100 3525 3541 
Q 3525 3141 3298 2862 
Q 3072 2584 2669 2484 
Q 3125 2378 3379 2068 
Q 3634 1759 3634 1313 
Q 3634 634 3220 271 
Q 2806 -91 2034 -91 
Q 1263 -91 848 271 
Q 434 634 434 1313 
Q 434 1759 690 2068 
Q 947 2378 1403 2484 
z
M 1172 3481 
Q 1172 3119 1398 2916 
Q 1625 2713 2034 2713 
Q 2441 2713 2670 2916 
Q 2900 3119 2900 3481 
Q 2900 3844 2670 4047 
Q 2441 4250 2034 4250 
Q 1625 4250 1398 4047 
Q 1172 3844 1172 3481 
z
" transform="scale(0.015625)"/>
       </defs>
       <use xlink:href="#DejaVuSans-38"/>
       <use xlink:href="#DejaVuSans-30" transform="translate(63.623047 0)"/>
       <use xlink:href="#DejaVuSans-30" transform="translate(127.246094 0)"/>
      </g>
     </g>
    </g>
    <g id="ytick_6">
     <g id="line2d_12">
      <g>
       <use xlink:href="#maad9b0aeb6" x="57.524151" y="146.705526" style="stroke: #000000; stroke-width: 0.8"/>
      </g>
     </g>
     <g id="text_13">
      <!-- 1000 -->
      <g transform="translate(25.074151 150.504744) scale(0.1 -0.1)">
       <use xlink:href="#DejaVuSans-31"/>
       <use xlink:href="#DejaVuSans-30" transform="translate(63.623047 0)"/>
       <use xlink:href="#DejaVuSans-30" transform="translate(127.246094 0)"/>
       <use xlink:href="#DejaVuSans-30" transform="translate(190.869141 0)"/>
      </g>
     </g>
    </g>
    <g id="ytick_7">
     <g id="line2d_13">
      <g>
       <use xlink:href="#maad9b0aeb6" x="57.524151" y="114.642885" style="stroke: #000000; stroke-width: 0.8"/>
      </g>
     </g>
     <g id="text_14">
      <!-- 1200 -->
      <g transform="translate(25.074151 118.442104) scale(0.1 -0.1)">
       <use xlink:href="#DejaVuSans-31"/>
       <use xlink:href="#DejaVuSans-32" transform="translate(63.623047 0)"/>
       <use xlink:href="#DejaVuSans-30" transform="translate(127.246094 0)"/>
       <use xlink:href="#DejaVuSans-30" transform="translate(190.869141 0)"/>
      </g>
     </g>
    </g>
    <g id="ytick_8">
     <g id="line2d_14">
      <g>
       <use xlink:href="#maad9b0aeb6" x="57.524151" y="82.580245" style="stroke: #000000; stroke-width: 0.8"/>
      </g>
     </g>
     <g id="text_15">
      <!-- 1400 -->
      <g transform="translate(25.074151 86.379464) scale(0.1 -0.1)">
       <use xlink:href="#DejaVuSans-31"/>
       <use xlink:href="#DejaVuSans-34" transform="translate(63.623047 0)"/>
       <use xlink:href="#DejaVuSans-30" transform="translate(127.246094 0)"/>
       <use xlink:href="#DejaVuSans-30" transform="translate(190.869141 0)"/>
      </g>
     </g>
    </g>
    <g id="ytick_9">
     <g id="line2d_15">
      <g>
       <use xlink:href="#maad9b0aeb6" x="57.524151" y="50.517605" style="stroke: #000000; stroke-width: 0.8"/>
      </g>
     </g>
     <g id="text_16">
      <!-- 1600 -->
      <g transform="translate(25.074151 54.316823) scale(0.1 -0.1)">
       <use xlink:href="#DejaVuSans-31"/>
       <use xlink:href="#DejaVuSans-36" transform="translate(63.623047 0)"/>
       <use xlink:href="#DejaVuSans-30" transform="translate(127.246094 0)"/>
       <use xlink:href="#DejaVuSans-30" transform="translate(190.869141 0)"/>
      </g>
     </g>
    </g>
    <g id="text_17">
     <!-- Liczba pikseli -->
     <g transform="translate(18.994464 207.501005) rotate(-90) scale(0.1 -0.1)">
      <defs>
       <path id="DejaVuSans-4c" d="M 628 4666 
L 1259 4666 
L 1259 531 
L 3531 531 
L 3531 0 
L 628 0 
L 628 4666 
z
" transform="scale(0.015625)"/>
       <path id="DejaVuSans-63" d="M 3122 3366 
L 3122 2828 
Q 2878 2963 2633 3030 
Q 2388 3097 2138 3097 
Q 1578 3097 1268 2742 
Q 959 2388 959 1747 
Q 959 1106 1268 751 
Q 1578 397 2138 397 
Q 2388 397 2633 464 
Q 2878 531 3122 666 
L 3122 134 
Q 2881 22 2623 -34 
Q 2366 -91 2075 -91 
Q 1284 -91 818 406 
Q 353 903 353 1747 
Q 353 2603 823 3093 
Q 1294 3584 2113 3584 
Q 2378 3584 2631 3529 
Q 2884 3475 3122 3366 
z
" transform="scale(0.015625)"/>
       <path id="DejaVuSans-7a" d="M 353 3500 
L 3084 3500 
L 3084 2975 
L 922 459 
L 3084 459 
L 3084 0 
L 275 0 
L 275 525 
L 2438 3041 
L 353 3041 
L 353 3500 
z
" transform="scale(0.015625)"/>
       <path id="DejaVuSans-62" d="M 3116 1747 
Q 3116 2381 2855 2742 
Q 2594 3103 2138 3103 
Q 1681 3103 1420 2742 
Q 1159 2381 1159 1747 
Q 1159 1113 1420 752 
Q 1681 391 2138 391 
Q 2594 391 2855 752 
Q 3116 1113 3116 1747 
z
M 1159 2969 
Q 1341 3281 1617 3432 
Q 1894 3584 2278 3584 
Q 2916 3584 3314 3078 
Q 3713 2572 3713 1747 
Q 3713 922 3314 415 
Q 2916 -91 2278 -91 
Q 1894 -91 1617 61 
Q 1341 213 1159 525 
L 1159 0 
L 581 0 
L 581 4863 
L 1159 4863 
L 1159 2969 
z
" transform="scale(0.015625)"/>
      </defs>
      <use xlink:href="#DejaVuSans-4c"/>
      <use xlink:href="#DejaVuSans-69" transform="translate(55.712891 0)"/>
      <use xlink:href="#DejaVuSans-63" transform="translate(83.496094 0)"/>
      <use xlink:href="#DejaVuSans-7a" transform="translate(138.476562 0)"/>
      <use xlink:href="#DejaVuSans-62" transform="translate(190.966797 0)"/>
      <use xlink:href="#DejaVuSans-61" transform="translate(254.443359 0)"/>
      <use xlink:href="#DejaVuSans-20" transform="translate(315.722656 0)"/>
      <use xlink:href="#DejaVuSans-70" transform="translate(347.509766 0)"/>
      <use xlink:href="#DejaVuSans-69" transform="translate(410.986328 0)"/>
      <use xlink:href="#DejaVuSans-6b" transform="translate(438.769531 0)"/>
      <use xlink:href="#DejaVuSans-73" transform="translate(496.679688 0)"/>
      <use xlink:href="#DejaVuSans-65" transform="translate(548.779297 0)"/>
      <use xlink:href="#DejaVuSans-6c" transform="translate(610.302734 0)"/>
      <use xlink:href="#DejaVuSans-69" transform="translate(638.085938 0)"/>
     </g>
    </g>
   </g>
   <g id="patch_259">
    <path d="M 57.524151 307.018727 
L 57.524151 41.395783 
" style="fill: none; stroke: #000000; stroke-width: 0.8; stroke-linejoin: miter; stroke-linecap: square"/>
   </g>
   <g id="patch_260">
    <path d="M 414.173888 307.018727 
L 414.173888 41.395783 
" style="fill: none; stroke: #000000; stroke-width: 0.8; stroke-linejoin: miter; stroke-linecap: square"/>
   </g>
   <g id="patch_261">
    <path d="M 57.524151 307.018727 
L 414.173888 307.018727 
" style="fill: none; stroke: #000000; stroke-width: 0.8; stroke-linejoin: miter; stroke-linecap: square"/>
   </g>
   <g id="patch_262">
    <path d="M 57.524151 41.395783 
L 414.173888 41.395783 
" style="fill: none; stroke: #000000; stroke-width: 0.8; stroke-linejoin: miter; stroke-linecap: square"/>
   </g>
  </g>
 </g>
 <defs>
  <clipPath id="p44a33072e7">
   <rect x="57.524151" y="41.395783" width="356.649737" height="265.622944"/>
  </clipPath>
 </defs>
</svg>
